<svg xmlns="http://www.w3.org/2000/svg" width="41" height="40" viewBox="0 0 41 40"><defs><style>.a,.d{fill:#fff;}.b,.c{fill:none;}.b{stroke:#0ce8b9;}.e,.f{stroke:none;}.f{fill:#0ce8b9;}</style></defs><g transform="translate(0 -0.438)"><g transform="translate(0 0)"><g class="a" transform="translate(0 0.438)"><path class="e" d="M 24.39709281921387 39.5 L 16.60306739807129 39.5 L 15.73590660095215 38.09491729736328 C 17.28416633605957 38.4938850402832 18.88117027282715 38.69556045532227 20.49983024597168 38.69556045532227 C 22.11844253540039 38.69556045532227 23.71562385559082 38.49382400512695 25.26423263549805 38.09473419189453 L 24.39709281921387 39.5 Z M 13.42564010620117 36.25544357299805 C 12.71870040893555 35.95337677001953 12.03069496154785 35.60562896728516 11.36905956268311 35.21559143066406 C 10.69050121307373 34.81560134887695 10.0371789932251 34.36976623535156 9.416445732116699 33.88352966308594 L 11.96198272705078 33.88352966308594 L 13.42564010620117 36.25544357299805 Z M 27.57441902160645 36.25529479980469 L 29.0380973815918 33.88352966308594 L 31.58312034606934 33.88352966308594 C 30.9622859954834 34.36985778808594 30.30909729003906 34.81565093994141 29.63083076477051 35.21553039550781 C 28.96911430358887 35.60559463500977 28.28121757507324 35.95328903198242 27.57441902160645 36.25529479980469 Z M 36.54475402832031 32.88352966308594 L 34.17718887329102 32.88352966308594 C 35.33163452148438 31.68216896057129 36.31691360473633 30.33869934082031 37.1148681640625 28.87628936767578 C 37.9266357421875 27.38844108581543 38.52569961547852 25.81047248840332 38.90258026123047 24.170166015625 L 40.41244506835938 26.61664772033691 L 36.54475402832031 32.88352966308594 Z M 6.82241678237915 32.88352966308594 L 4.454818725585938 32.88352966308594 L 0.5875374674797058 26.61664962768555 L 2.097055912017822 24.17048835754395 C 2.473891496658325 25.81062126159668 3.072988510131836 27.38864707946777 3.884779930114746 28.87639045715332 C 4.682588577270508 30.33858299255371 5.668003559112549 31.68217658996582 6.82241678237915 32.88352966308594 Z M 2.675664186477661 21.3287181854248 C 2.642530202865601 20.88683128356934 2.625849962234497 20.44302177429199 2.625849962234497 20.00016975402832 C 2.625849962234497 19.55739402770996 2.642522573471069 19.11360740661621 2.675631523132324 18.67181968688965 L 3.495617866516113 20.00005149841309 L 2.675664186477661 21.3287181854248 Z M 38.3239860534668 21.32861518859863 L 37.50401306152344 19.99999237060547 L 38.32391357421875 18.67147254943848 C 38.35704803466797 19.11289215087891 38.37371826171875 19.55669403076172 38.37371826171875 20.00016975402832 C 38.37371826171875 20.44332313537598 38.3570671081543 20.88708877563477 38.3239860534668 21.32861518859863 Z M 38.90254211425781 15.82999706268311 C 38.52565002441406 14.18949508666992 37.92658615112305 12.61142158508301 37.1148796081543 11.1237096786499 C 36.31709289550781 9.661524772644043 35.33171081542969 8.317960739135742 34.17716598510742 7.116469860076904 L 36.54475402832031 7.116469860076904 L 40.41244506835938 13.3833532333374 L 38.90254211425781 15.82999706268311 Z M 2.097146511077881 15.8297643661499 L 0.5875360369682312 13.38335227966309 L 4.454818725585938 7.116469860076904 L 6.82244873046875 7.116469860076904 C 5.667876720428467 8.317949295043945 4.682573795318604 9.661478996276855 3.884929895401001 11.1236400604248 C 3.07320499420166 12.61132526397705 2.474064588546753 14.18950271606445 2.097146511077881 15.8297643661499 Z M 31.58322906494141 6.116469860076904 L 29.03809928894043 6.116469860076904 L 27.5744571685791 3.744755029678345 C 28.28122520446777 4.046752452850342 28.96919822692871 4.394469738006592 29.6308708190918 4.78449010848999 C 30.30935668945312 5.18445873260498 30.96249961853027 5.630192756652832 31.58322906494141 6.116469860076904 Z M 11.96206760406494 6.116469860076904 L 9.416450500488281 6.116469860076904 C 10.0371675491333 5.630247592926025 10.69043731689453 5.184451103210449 11.36905956268311 4.78439998626709 C 12.03077983856201 4.39431619644165 12.71883106231689 4.046550273895264 13.42569541931152 3.744522333145142 L 11.96206760406494 6.116469860076904 Z M 15.73538589477539 1.905225515365601 L 16.60300254821777 0.5000003576278687 L 24.39702033996582 0.5000096559524536 L 25.26399421691895 1.904939413070679 C 23.71515274047852 1.506092190742493 22.11794281005859 1.30443000793457 20.49983024597168 1.30443000793457 C 18.88100433349609 1.30443000793457 17.28391647338867 1.50613260269165 15.73538589477539 1.905225515365601 Z"/><path class="f" d="M 24.11809921264648 39 L 24.21503639221191 38.8429069519043 C 23.90345573425293 38.90288543701172 23.59017944335938 38.95526885986328 23.27559661865234 39 L 24.11809921264648 39 M 17.72378540039062 39 C 17.40946578979492 38.9553108215332 17.09649085998535 38.90298080444336 16.78518486022949 38.84306716918945 L 16.88203620910645 39 L 17.72378540039062 39 M 12.09689617156982 35.05427169799805 L 11.68299579620361 34.38352966308594 L 10.97509956359863 34.38352966308594 C 11.18815231323242 34.52205657958984 11.40425109863281 34.65593338012695 11.62296962738037 34.78485870361328 C 11.77943706512451 34.87709808349609 11.93750190734863 34.96694946289062 12.09689617156982 35.05427169799805 M 28.90328979492188 35.05404663085938 C 29.06256866455078 34.9667854309082 29.22053146362305 34.87699508666992 29.37689971923828 34.78482055664062 C 29.59556770324707 34.65590286254883 29.81155776977539 34.52207183837891 30.02460098266602 34.38352966308594 L 29.31708145141602 34.38352966308594 L 28.90328979492188 35.05404663085938 M 36.26578521728516 32.38352966308594 L 39.82489395141602 26.61664772033691 L 39.08942413330078 25.42494010925293 C 38.71066284179688 26.70168113708496 38.19730758666992 27.93630218505859 37.55379104614258 29.11577987670898 C 36.91715621948242 30.28253555297852 36.16445159912109 31.37546730041504 35.30434799194336 32.38352966308594 L 36.26578521728516 32.38352966308594 M 5.695251941680908 32.38352966308594 C 4.83516788482666 31.37549018859863 4.082398414611816 30.2824878692627 3.445869922637939 29.11587905883789 C 2.80234432220459 27.93651962280273 2.288968801498413 26.70193290710449 1.910231947898865 25.42534065246582 L 1.175078749656677 26.61664962768555 L 4.733810901641846 32.38352966308594 L 5.695251941680908 32.38352966308594 M 39.08940505981445 14.57515335083008 L 39.82489776611328 13.38335990905762 L 36.26578521728516 7.616469860076904 L 35.30432891845703 7.616469860076904 C 36.16446304321289 8.624571800231934 36.91729736328125 9.717649459838867 37.55379867553711 10.88422966003418 C 38.19723892211914 12.06353092193604 38.71065139770508 13.2983922958374 39.08940505981445 14.57515335083008 M 1.910342812538147 14.57490539550781 C 2.289123058319092 13.29818916320801 2.802512168884277 12.06353378295898 3.446000099182129 10.88418960571289 C 4.082391262054443 9.717616081237793 4.835139751434326 8.624570846557617 5.695272922515869 7.616469860076904 L 4.733810901641846 7.616469860076904 L 1.175073981285095 13.38335800170898 L 1.910342812538147 14.57490539550781 M 30.02466201782227 5.616469860076904 C 29.81163024902344 5.477946758270264 29.59566879272461 5.344148635864258 29.37697982788086 5.215229988098145 C 29.2205696105957 5.123034000396729 29.06262588500977 5.03325891494751 28.90330505371094 4.945977687835693 L 29.31708145141602 5.616469860076904 L 30.02466201782227 5.616469860076904 M 11.68306541442871 5.616469860076904 L 12.0969877243042 4.945669651031494 C 11.93753623962402 5.033022403717041 11.77950286865234 5.122854232788086 11.62296962738037 5.215129852294922 C 11.40423011779785 5.34407901763916 11.18817615509033 5.477932453155518 10.97511196136475 5.616469860076904 L 11.68306541442871 5.616469860076904 M 16.78499794006348 1.156969904899597 C 17.0964298248291 1.097027659416199 17.40932655334473 1.044708371162415 17.72376823425293 1.000001668930054 L 16.88191223144531 1.000000715255737 L 16.78499794006348 1.156969904899597 M 24.21487045288086 1.156945824623108 L 24.11802673339844 1.000009298324585 L 23.27602577209473 1.000008344650269 C 23.59043121337891 1.044705152511597 23.9034366607666 1.097023367881775 24.21487045288086 1.156945824623108 M 24.67601013183594 40 L 16.32408905029297 40 L 14.62401008605957 37.24531173706055 C 16.51102066040039 37.87570953369141 18.48794937133789 38.19556045532227 20.49983024597168 38.19556045532227 C 22.51108932495117 38.19556045532227 24.48810005187988 37.87580871582031 26.37599945068359 37.24517059326172 L 24.67617988586426 39.99985885620117 L 24.67601013183594 40 Z M 14.62401008605957 37.24531173706055 L 14.62312984466553 37.24504852294922 C 13.40377998352051 36.83760070800781 12.22350978851318 36.29970932006836 11.11513996124268 35.64632034301758 C 10.02064990997314 35.00114822387695 8.989819526672363 34.23983001708984 8.051630020141602 33.38352966308594 L 12.24098014831543 33.38352966308594 L 12.14817047119141 33.23311996459961 L 16.23127937316895 26.61664962768555 L 16.23127937316895 26.61665916442871 L 16.23128318786621 26.61665534973145 L 16.32408905029297 26.76704978942871 L 16.61086082458496 26.76704978942871 L 12.52783966064453 33.38352966308594 L 12.24098014831543 33.38352966308594 L 14.62357044219971 37.24460983276367 L 14.62401008605957 37.24531173706055 Z M 26.37599945068359 37.24517059326172 L 26.37644004821777 37.24446105957031 L 28.75910949707031 33.38352966308594 L 32.94802856445312 33.38352966308594 C 32.00886154174805 34.24053955078125 30.97812080383301 35.00165176391602 29.88476943969727 35.6462516784668 C 28.77622985839844 36.29970169067383 27.59605026245117 36.83757019042969 26.37688064575195 37.24489974975586 L 26.37599945068359 37.24517059326172 Z M 36.82365036010742 33.3836784362793 L 36.82365036010742 33.38352966308594 L 32.94802856445312 33.38352966308594 C 34.45185852050781 32.01115036010742 35.70606994628906 30.41431045532227 36.67596054077148 28.63680076599121 C 37.6685905456543 26.81744956970215 38.33441925048828 24.85931968688965 38.65491104125977 22.81682014465332 L 38.65491104125977 22.81682968139648 L 38.65491104125977 22.81682205200195 L 41 26.61664962768555 L 36.82373046875 33.38352966308594 L 36.82365036010742 33.3836784362793 Z M 28.75910949707031 33.38352966308594 L 28.47216987609863 33.38352966308594 L 24.38905906677246 26.76704978942871 L 24.67601013183594 26.76704978942871 L 24.7688159942627 26.61665534973145 L 24.76881980895996 26.61665916442871 L 24.76882362365723 26.61665534973145 L 28.85174942016602 33.23313140869141 L 28.75910949707031 33.38352966308594 Z M 8.051630020141602 33.38352966308594 L 8.050840377807617 33.38352966308594 L 4.175829887390137 33.38352966308594 L 0 26.61664962768555 L 2.34473991394043 22.81702041625977 L 2.34473991394043 22.81702995300293 L 2.344741344451904 22.8170280456543 C 2.665060043334961 24.85903930664062 3.330709934234619 26.81708908081055 4.323689937591553 28.63689994812012 C 5.293059825897217 30.41352081298828 6.546999931335449 32.01034164428711 8.051010131835938 33.38301086425781 L 8.051630020141602 33.38352966308594 Z M 24.38905906677246 26.76704978942871 L 24.38845062255859 26.76704978942871 L 16.61086082458496 26.76704978942871 L 16.70367050170898 26.61664962768555 L 16.61086082458496 26.46624946594238 L 24.38905906677246 26.46624946594238 L 24.29634094238281 26.61664962768555 L 24.3887996673584 26.76659965515137 L 24.38905906677246 26.76704978942871 Z M 16.23127555847168 26.61665534973145 L 16.23092079162598 26.61623954772949 L 12.24071979522705 20.15022087097168 L 12.52783966064453 20.15022087097168 L 12.62065029144287 20 L 16.61086082458496 26.46624946594238 L 16.32408905029297 26.46624946594238 L 16.23154067993164 26.61623954772949 L 16.23128318786621 26.61665534973145 L 16.23127937316895 26.61664962768555 Z M 24.76881980895996 26.61664962768555 L 24.7688159942627 26.61665534973145 L 24.76855087280273 26.61623954772949 L 24.67601013183594 26.46624946594238 L 24.38905906677246 26.46624946594238 L 28.37944030761719 20 L 28.47216987609863 20.15022087097168 L 28.75919914245605 20.15022087097168 L 24.7691707611084 26.61623954772949 L 24.76882362365723 26.61665534973145 Z M 2.34473991394043 22.81702041625977 L 2.34456992149353 22.81620979309082 C 2.199429988861084 21.89071083068848 2.125849962234497 20.94326019287109 2.125849962234497 20.00016975402832 C 2.125849962234497 19.05690002441406 2.199429988861084 18.10931015014648 2.34456992149353 17.18372917175293 L 4.083199977874756 20 L 2.345180034637451 22.81632041931152 L 2.344741344451904 22.8170280456543 Z M 38.6549072265625 22.81682777404785 L 38.65446853637695 22.81612014770508 L 36.91645812988281 20 L 38.65446853637695 17.18383026123047 C 38.80022048950195 18.10869979858398 38.87371826171875 19.05620956420898 38.87371826171875 20.00016975402832 C 38.87371826171875 20.94411087036133 38.80022048950195 21.8914909362793 38.65499877929688 22.81600952148438 L 38.65491104125977 22.81682205200195 L 38.65491104125977 22.81682014465332 Z M 36.82373046875 20.15022087097168 L 28.75919914245605 20.15022087097168 L 28.85174942016602 20.00016975402832 L 28.75910949707031 19.84977912902832 L 36.82373046875 19.84977912902832 L 36.91645812988281 20 L 36.82390975952148 20.15007972717285 L 36.82373046875 20.15022087097168 Z M 12.24071979522705 20.15022087097168 L 12.24009990692139 20.15022087097168 L 4.175829887390137 20.15022087097168 L 4.083199977874756 20 L 4.175829887390137 19.84977912902832 L 12.24098014831543 19.84977912902832 L 12.14817047119141 20.00016975402832 L 12.24036026000977 20.14975929260254 L 12.24071979522705 20.15022087097168 Z M 28.37944030761719 20 L 28.37918090820312 19.99958038330078 L 24.38905906677246 13.5337495803833 L 24.67601013183594 13.5337495803833 L 24.76873016357422 13.38360977172852 L 28.75910949707031 19.84977912902832 L 28.47216987609863 19.84977912902832 L 28.37970924377441 19.99958038330078 L 28.37944030761719 20 Z M 12.62065029144287 20 L 12.62030029296875 19.99958038330078 L 12.52783966064453 19.84977912902832 L 12.24098014831543 19.84977912902832 L 16.23110008239746 13.383620262146 L 16.32408905029297 13.5337495803833 L 16.61086082458496 13.5337495803833 L 12.62090969085693 19.99958038330078 L 12.62065029144287 20 Z M 38.65491104125977 17.18331909179688 L 38.65473175048828 17.18251037597656 C 38.33415985107422 15.1400899887085 37.66841888427734 13.18218040466309 36.67596054077148 11.36318969726562 C 35.7064094543457 9.586199760437012 34.45212173461914 7.989170074462891 32.94802856445312 6.616469860076904 L 36.82373046875 6.616469860076904 L 41 13.38335037231445 L 38.65534973144531 17.18261909484863 L 38.65491104125977 17.18331909179688 Z M 2.34473991394043 17.18313980102539 L 2.34431004524231 17.18243980407715 L 0 13.38335037231445 L 4.175829887390137 6.616469860076904 L 8.051630020141602 6.616469860076904 C 6.547619819641113 7.988999843597412 5.293409824371338 9.585809707641602 4.323870182037354 11.3630895614624 C 3.33132004737854 13.18216991424561 2.665499925613403 15.14004039764404 2.344919919967651 17.18232917785645 L 2.34473991394043 17.18313980102539 Z M 24.38905906677246 13.5337495803833 L 24.38845062255859 13.5337495803833 L 16.61086082458496 13.5337495803833 L 16.70367050170898 13.38335037231445 L 16.61086082458496 13.23295021057129 L 24.38905906677246 13.23295021057129 L 24.29634094238281 13.38335037231445 L 24.3887996673584 13.53328990936279 L 24.38905906677246 13.5337495803833 Z M 24.76873016357422 13.38350963592529 L 24.76837921142578 13.38309001922607 L 24.67601013183594 13.23295021057129 L 24.38905906677246 13.23295021057129 L 28.47216987609863 6.616469860076904 L 28.75910949707031 6.616469860076904 L 26.37599945068359 2.754829883575439 C 27.59613990783691 3.162440061569214 28.77659034729004 3.700540065765381 29.88476943969727 4.353750228881836 C 30.97899055480957 4.998799800872803 32.00947952270508 5.759920120239258 32.94741058349609 6.615950107574463 L 32.94802856445312 6.616469860076904 L 32.94723129272461 6.616469860076904 L 28.75910949707031 6.616469860076904 L 28.85174942016602 6.766870021820068 L 24.76898956298828 13.38309001922607 L 24.76873016357422 13.38350963592529 Z M 16.23110008239746 13.38350963592529 L 16.23074913024902 13.38309001922607 L 12.14817047119141 6.766870021820068 L 12.24098014831543 6.616469860076904 L 12.52783966064453 6.616469860076904 L 16.61086082458496 13.23295021057129 L 16.32408905029297 13.23295021057129 L 16.23135948181152 13.38309001922607 L 16.23110008239746 13.38350963592529 Z M 12.24098014831543 6.616469860076904 L 12.24088954925537 6.616469860076904 L 8.051630020141602 6.616469860076904 C 8.990440368652344 5.759600162506104 10.02136039733887 4.998459815979004 11.11513996124268 4.353670120239258 C 12.22393989562988 3.700040102005005 13.40447998046875 3.162060022354126 14.62401008605957 2.754679918289185 L 12.24114990234375 6.616330146789551 L 12.24098014831543 6.616469860076904 Z M 14.62312984466553 2.754950046539307 L 14.62357044219971 2.754240036010742 L 16.32408905029297 0 L 24.67601013183594 9.999999747378752e-06 L 26.37556076049805 2.754129886627197 C 24.4876594543457 2.124099969863892 22.51091003417969 1.80443000793457 20.49983024597168 1.80443000793457 C 18.48856925964355 1.80443000793457 16.51155090332031 2.124140024185181 14.62401008605957 2.754679918289185 L 14.62312984466553 2.754950046539307 Z"/></g><line class="b" y2="4.785" transform="translate(17.156 20.015)"/><line class="b" y2="8.311" transform="translate(23.704 16.489)"/><line class="b" y2="2.267" transform="translate(21.437 17.748)"/><line class="b" y2="3.778" transform="translate(21.437 21.022)"/><line class="b" y2="2.518" transform="translate(19.171 19.259)"/><line class="b" y2="2.015" transform="translate(19.171 22.785)"/><g transform="matrix(0.951, -0.309, 0.309, 0.951, 3.948, 10.607)"><path class="c" d="M0,0H7.98V9.121H0Z" transform="translate(0 0)"/><path class="d" d="M4.736,0,5.51.7,3.86,2.177,2.506.963,0,3.216l.477.428,2.03-1.822L3.86,3.036l2.131-1.91.775.7V0Z" transform="translate(0.607 2.738)"/></g><g transform="translate(20.3 39.507) rotate(-138)"><path class="c" d="M0,0H7.98V9.121H0Z" transform="translate(0 0)"/><path class="d" d="M4.736,0,5.51.7,3.86,2.177,2.506.963,0,3.216l.477.428,2.03-1.822L3.86,3.036l2.131-1.91.775.7V0Z" transform="translate(0.607 2.738)"/></g><g transform="matrix(-0.087, 0.996, -0.996, -0.087, 37.12, 10.438)"><path class="c" d="M0,0H7.98V9.121H0Z" transform="translate(0 0)"/><path class="d" d="M4.736,0,5.51.7,3.86,2.177,2.506.963,0,3.216l.477.428,2.03-1.822L3.86,3.036l2.131-1.91.775.7V0Z" transform="translate(0.607 2.738)"/></g></g></g></svg>