<svg xmlns="http://www.w3.org/2000/svg" width="41" height="40" viewBox="0 0 41 40">
  <g id="Logo" transform="translate(0 -0.438)">
    <g id="Group_5" data-name="Group 5">
      <g id="Group_1" data-name="Group 1" transform="translate(0 0.438)">
        <path id="Path_1" data-name="Path 1" d="M24.4,39.5H16.6l-.867-1.405a19.19,19.19,0,0,0,9.528,0ZM13.426,36.255a17.892,17.892,0,0,1-4.009-2.372h2.546Zm14.149,0,1.464-2.372h2.545a17.886,17.886,0,0,1-4.009,2.372Zm8.97-3.372H34.177a18.709,18.709,0,0,0,2.938-4.007A18.428,18.428,0,0,0,38.9,24.17l1.51,2.446Zm-29.722,0H4.455L.588,26.617,2.1,24.17a18.422,18.422,0,0,0,1.788,4.706A18.706,18.706,0,0,0,6.822,32.883ZM2.676,21.329c-.033-.442-.05-.886-.05-1.328s.017-.887.05-1.328L3.5,20Zm35.648,0L37.5,20l.82-1.329c.033.441.05.885.05,1.329S38.357,20.887,38.324,21.329Zm.578-5.5a18.42,18.42,0,0,0-1.788-4.706,18.709,18.709,0,0,0-2.938-4.007h2.368l3.868,6.267ZM2.1,15.83.588,13.383,4.455,7.116H6.822a18.7,18.7,0,0,0-2.938,4.007A18.425,18.425,0,0,0,2.1,15.83ZM31.583,6.116H29.038L27.574,3.745a17.883,17.883,0,0,1,4.009,2.372Zm-19.621,0H9.416a17.9,17.9,0,0,1,4.009-2.372Zm3.773-4.211L16.6.5H24.4l.867,1.4a19.2,19.2,0,0,0-9.529,0Z" fill="#fff"/>
        <path id="Path_2" data-name="Path 2" d="M24.118,39l.1-.157q-.467.09-.939.157h.842m-6.394,0q-.471-.067-.939-.157l.1.157h.842M12.1,35.054l-.414-.671h-.708q.32.208.648.4.235.138.474.269m16.806,0q.239-.131.474-.269.328-.193.648-.4h-.707l-.414.671m7.363-2.671,3.559-5.767-.736-1.192a18.952,18.952,0,0,1-1.536,3.691,19.186,19.186,0,0,1-2.25,3.268h.962m-30.571,0a19.191,19.191,0,0,1-2.249-3.268A18.953,18.953,0,0,1,1.91,25.425l-.735,1.191,3.559,5.767H5.7M39.089,14.575l.736-1.192L36.266,7.616H35.3a19.19,19.19,0,0,1,2.25,3.268,18.954,18.954,0,0,1,1.536,3.691m-37.179,0a18.953,18.953,0,0,1,1.536-3.691A19.186,19.186,0,0,1,5.7,7.616H4.734L1.175,13.383l.735,1.191M30.025,5.616q-.32-.208-.648-.4-.235-.138-.474-.269l.414.67h.708m-18.342,0,.414-.671q-.239.131-.474.269-.328.193-.648.4h.708m5.1-4.459q.467-.09.939-.157h-.842l-.1.157m7.43,0L24.118,1h-.842q.472.067.939.157M24.676,40H16.324l-1.7-2.755a18.641,18.641,0,0,0,11.752,0L24.676,40ZM14.624,37.245h0a18.4,18.4,0,0,1-6.571-3.861h4.189l-.093-.15,4.083-6.617h0l.093.15h.287l-4.083,6.616h-.287l2.383,3.861Zm11.752,0h0l2.383-3.861h4.189a18.4,18.4,0,0,1-6.571,3.861Zm10.448-3.861H32.948a18.243,18.243,0,0,0,3.728-4.747,17.92,17.92,0,0,0,1.979-5.82h0L41,26.617l-4.176,6.767Zm-8.065,0h-.287l-4.083-6.616h.287l.093-.15h0l4.083,6.616Zm-20.707,0H4.176L0,26.617l2.345-3.8h0a17.914,17.914,0,0,0,1.979,5.82,18.246,18.246,0,0,0,3.727,4.746Zm16.337-6.616H16.611l.093-.15-.093-.15h7.778l-.093.15.092.15Zm-8.158-.15h0l-3.99-6.466h.287l.093-.15,3.99,6.466h-.287l-.093.15Zm8.538,0h0l-.093-.15h-.287L28.379,20l.093.15h.287l-3.99,6.466h0Zm-22.424-3.8h0a18.24,18.24,0,0,1,0-5.632L4.083,20,2.345,22.816Zm36.31,0h0L36.917,20l1.738-2.816a18.22,18.22,0,0,1,0,5.632ZM36.824,20.15H28.759l.093-.15-.093-.15h8.065l.093.15-.093.15Zm-24.583,0H4.176L4.083,20l.093-.15h8.065l-.093.15.092.15ZM28.379,20h0l-3.99-6.466h.287l.093-.15,3.99,6.466h-.287L28.38,20ZM12.621,20h0l-.093-.15h-.287l3.99-6.466.093.15h.287L12.621,20Zm26.034-2.817h0a17.918,17.918,0,0,0-1.979-5.819,18.248,18.248,0,0,0-3.728-4.747h3.876L41,13.383l-2.345,3.8Zm-36.31,0h0L0,13.383,4.176,6.616H8.052a18.239,18.239,0,0,0-3.728,4.747,17.918,17.918,0,0,0-1.979,5.819Zm22.044-3.649H16.611l.093-.15-.093-.15h7.778l-.093.15.092.15Zm.38-.15h0l-.092-.15h-.287l4.083-6.617h.287L26.376,2.755a18.4,18.4,0,0,1,6.571,3.861H28.759l.093.15-4.083,6.616Zm-8.538,0h0L12.148,6.767l.093-.15h.287l4.083,6.617h-.287l-.093.15Zm-3.99-6.767H8.052a18.4,18.4,0,0,1,6.572-3.862L12.241,6.616Zm2.382-3.862h0L16.324,0h8.352l1.7,2.754a18.647,18.647,0,0,0-11.752,0Z" fill="#1000eb"/>
      </g>
      <line id="Line_1" data-name="Line 1" y2="4.785" transform="translate(17.156 20.015)" fill="none" stroke="#1000eb" stroke-width="1"/>
      <line id="Line_2" data-name="Line 2" y2="8.311" transform="translate(23.704 16.489)" fill="none" stroke="#1000eb" stroke-width="1"/>
      <line id="Line_3" data-name="Line 3" y2="2.267" transform="translate(21.437 17.748)" fill="none" stroke="#1000eb" stroke-width="1"/>
      <line id="Line_4" data-name="Line 4" y2="3.778" transform="translate(21.437 21.022)" fill="none" stroke="#1000eb" stroke-width="1"/>
      <line id="Line_5" data-name="Line 5" y2="2.518" transform="translate(19.171 19.259)" fill="none" stroke="#1000eb" stroke-width="1"/>
      <line id="Line_6" data-name="Line 6" y2="2.015" transform="translate(19.171 22.785)" fill="none" stroke="#1000eb" stroke-width="1"/>
      <g id="Group_2" data-name="Group 2" transform="translate(3.948 10.607) rotate(-18)">
        <path id="Path_3" data-name="Path 3" d="M0,0H7.98V9.121H0Z" fill="none"/>
        <path id="Path_4" data-name="Path 4" d="M4.736,0,5.51.7,3.86,2.177,2.506.963,0,3.216l.477.428,2.03-1.822L3.86,3.036l2.131-1.91.775.7V0Z" transform="translate(0.607 2.738)" fill="#1000eb"/>
      </g>
      <g id="Group_3" data-name="Group 3" transform="translate(20.3 39.507) rotate(-138)">
        <path id="Path_5" data-name="Path 5" d="M0,0H7.98V9.121H0Z" fill="none"/>
        <path id="Path_6" data-name="Path 6" d="M4.736,0,5.51.7,3.86,2.177,2.506.963,0,3.216l.477.428,2.03-1.822L3.86,3.036l2.131-1.91.775.7V0Z" transform="translate(0.607 2.738)" fill="#1000eb"/>
      </g>
      <g id="Group_4" data-name="Group 4" transform="translate(37.12 10.438) rotate(94.992)">
        <path id="Path_7" data-name="Path 7" d="M0,0H7.98V9.121H0Z" fill="none"/>
        <path id="Path_8" data-name="Path 8" d="M4.736,0,5.51.7,3.86,2.177,2.506.963,0,3.216l.477.428,2.03-1.822L3.86,3.036l2.131-1.91.775.7V0Z" transform="translate(0.607 2.738)" fill="#1000eb"/>
      </g>
    </g>
  </g>
</svg>
